<?xml version="1.0" encoding="utf-8"?>
<svg version="1.1" id="Layer_1" xmlns="http://www.w3.org/2000/svg" xmlns:xlink="http://www.w3.org/1999/xlink" x="0px" y="0px"
	 viewBox="0 0 512 512" style="enable-background:new 0 0 512 512;" xml:space="preserve">
<style type="text/css">
	.st0{fill:#9CA4AB;}
</style>

	<path id="XMLID_3_" class="st0" d="M43,201.6h425.6c15,0,26.8-11.8,26.8-26.8v-36.3c0-10.2-6.3-19.7-15.8-24.4L266.9,19.6
		c-7.1-3.2-15-3.2-21.3,0L32.8,114.1c-9.5,3.9-15.8,14.2-15.8,24.4v36.3C16.2,189.8,28.1,201.6,43,201.6z"/>
	<path id="XMLID_4_" class="st0" d="M510.4,459.3l-8.7-26.8c-3.9-11-14.2-18.1-25.2-18.1h-33.9v-186H389v186.8h-53.6V228.4h-53.6
		v186.8h-53.6V228.4h-53.6v186.8h-53.6V228.4H67.5v186.8H35.1c-11.8,0-21.3,7.1-25.2,18.1l-8.7,26.8c-2.4,7.9-1.6,17.3,3.9,23.6
		c4.7,7.1,13.4,11,21.3,11h458.7c8.7,0,16.6-3.9,21.3-11C512,476.7,513.5,468,510.4,459.3z"/>

</svg>
