<?xml version="1.0" encoding="utf-8"?>
<!-- Generator: Adobe Illustrator 26.3.1, SVG Export Plug-In . SVG Version: 6.00 Build 0)  -->
<svg version="1.1" id="Layer_1" xmlns="http://www.w3.org/2000/svg" xmlns:xlink="http://www.w3.org/1999/xlink" x="0px" y="0px"
	 viewBox="0 0 512 512" style="enable-background:new 0 0 512 512;" xml:space="preserve">
<style type="text/css">
	.st0{fill:#9CA4AB;}
</style>
<g>
	<path class="st0" d="M40.96,81.92v10.24h430.08c5.69,0.01,10.74,2.28,14.48,6c3.72,3.74,5.99,8.79,6,14.48v286.72
		c-0.01,5.69-2.28,10.74-6,14.48c-3.74,3.72-8.79,5.99-14.48,6H40.96c-5.69-0.01-10.74-2.28-14.48-6c-3.72-3.74-5.99-8.79-6-14.48
		V112.64c0.01-5.69,2.28-10.74,6-14.48c3.74-3.72,8.79-5.99,14.48-6V81.92V71.68C18.33,71.69,0.01,90.01,0,112.64v286.72
		c0.01,22.63,18.33,40.95,40.96,40.96h430.08c22.63-0.01,40.95-18.33,40.96-40.96V112.64c-0.01-22.63-18.33-40.95-40.96-40.96H40.96
		V81.92z"/>
	<path class="st0" d="M371.51,289.31l6.35,8.04c6.81-5.37,15.39-8.57,24.85-8.58c11.03,0,20.91,4.38,28.1,11.45
		c7.18,7.09,11.56,16.73,11.56,27.46c-0.01,10.73-4.38,20.37-11.56,27.46c-7.19,7.07-17.07,11.45-28.1,11.45
		c-9.45,0-18.04-3.21-24.85-8.58c-3.71-2.93-8.98-2.93-12.69,0c-6.81,5.37-15.39,8.57-24.85,8.58c-11.03,0-20.91-4.38-28.11-11.45
		c-7.18-7.09-11.56-16.73-11.56-27.46c0.01-10.73,4.38-20.37,11.56-27.46c7.19-7.07,17.07-11.45,28.11-11.45
		c9.45,0,18.04,3.21,24.85,8.58c3.71,2.93,8.98,2.93,12.69,0L371.51,289.31l6.35-8.04c-10.28-8.13-23.39-12.99-37.54-12.98
		c-16.53,0-31.61,6.62-42.48,17.34c-10.88,10.7-17.68,25.64-17.67,42.05c-0.01,16.41,6.79,31.35,17.67,42.05
		c10.87,10.72,25.94,17.34,42.48,17.34c14.15,0,27.26-4.86,37.54-12.98l-6.35-8.04l-6.35,8.04c10.28,8.13,23.39,12.99,37.54,12.98
		c16.53,0,31.61-6.62,42.48-17.34c10.88-10.7,17.68-25.64,17.67-42.05c0.01-16.41-6.79-31.35-17.67-42.05
		c-10.87-10.72-25.94-17.34-42.48-17.34c-14.15,0-27.26,4.86-37.54,12.98L371.51,289.31l6.35-8.04L371.51,289.31z"/>
	<path class="st0" d="M61.44,230.4h81.92c5.66,0,10.24-4.58,10.24-10.24c0-5.66-4.58-10.24-10.24-10.24H61.44
		c-5.66,0-10.24,4.58-10.24,10.24C51.2,225.82,55.78,230.4,61.44,230.4"/>
	<path class="st0" d="M174.08,230.4H256c5.66,0,10.24-4.58,10.24-10.24c0-5.66-4.58-10.24-10.24-10.24h-81.92
		c-5.66,0-10.24,4.58-10.24,10.24C163.84,225.82,168.42,230.4,174.08,230.4"/>
	<path class="st0" d="M286.72,230.4h81.92c5.66,0,10.24-4.58,10.24-10.24c0-5.66-4.58-10.24-10.24-10.24h-81.92
		c-5.66,0-10.24,4.58-10.24,10.24C276.48,225.82,281.06,230.4,286.72,230.4"/>
	<path class="st0" d="M59.39,377.24h58.98c5.66,0,10.24-4.58,10.24-10.24c0-5.66-4.58-10.24-10.24-10.24H59.39
		c-5.66,0-10.24,4.58-10.24,10.24C49.15,372.66,53.74,377.24,59.39,377.24"/>
	<path class="st0" d="M147.87,377.24h58.98c5.66,0,10.24-4.58,10.24-10.24c0-5.66-4.58-10.24-10.24-10.24h-58.98
		c-5.66,0-10.24,4.58-10.24,10.24C137.63,372.66,142.21,377.24,147.87,377.24"/>
	<path class="st0" d="M59.39,328.09h147.46c5.66,0,10.24-4.58,10.24-10.24c0-5.66-4.58-10.24-10.24-10.24H59.39
		c-5.66,0-10.24,4.58-10.24,10.24C49.15,323.51,53.74,328.09,59.39,328.09"/>
	<path class="st0" d="M59.39,151.14h44.24c5.66,0,10.24-4.58,10.24-10.24c0-5.66-4.58-10.24-10.24-10.24H59.39
		c-5.66,0-10.24,4.58-10.24,10.24C49.15,146.56,53.74,151.14,59.39,151.14"/>
</g>
</svg>
